# 3ds Max Wavefront OBJ Exporter v0.97b - (c)2007 guruware
# File Created: 19.11.2012 11:51:04

mtllib UFO.mtl

#
# object UFO
#

v  -3.832373 11.616927 5.781807
v  -2.512225 14.435722 4.190262
v  -4.211775 14.435722 2.424531
v  -5.968037 11.616927 3.266136
v  0.000000 11.616927 6.620470
v  0.000000 14.435722 4.856520
v  -4.410130 7.743933 6.554653
v  -6.849250 7.743933 3.593102
v  0.000000 7.743933 7.547104
v  -1.515267 15.620932 1.572318
v  0.000000 15.774544 1.597406
v  -7.604522 7.743933 -0.000000
v  -15.092585 5.280770 -0.000000
v  -14.071645 5.280770 6.565154
v  -8.251139 5.280770 13.138645
v  0.000000 5.280770 15.151133
v  -15.092585 3.744502 -0.000000
v  -14.071645 3.744502 6.565154
v  -8.251139 3.744502 13.138645
v  0.000000 3.744502 15.151133
v  -10.001079 1.021550 -0.000000
v  -9.727653 1.021549 4.007256
v  -5.531374 1.021550 9.120770
v  0.000000 1.021549 10.369918
v  0.000000 0.040157 -0.000000
v  0.000000 15.774546 -0.000000
v  -1.948360 15.620932 -0.000000
v  -6.667412 11.616927 -0.000000
v  -4.874413 14.435722 -0.000000
v  -3.832373 11.616927 -5.781807
v  -5.968037 11.616927 -3.266136
v  -4.211775 14.435722 -2.424531
v  -2.512225 14.435722 -4.190262
v  0.000000 11.616927 -6.620470
v  0.000000 14.435722 -4.856520
v  -4.410130 7.743933 -6.554653
v  -6.849250 7.743933 -3.593102
v  0.000000 7.743933 -7.547104
v  -1.515267 15.620932 -1.572318
v  0.000000 15.774544 -1.597406
v  -14.071645 5.280770 -6.565154
v  -8.251139 5.280770 -13.138645
v  0.000000 5.280770 -15.151133
v  -14.071645 3.744502 -6.565154
v  -8.251139 3.744502 -13.138645
v  0.000000 3.744502 -15.151133
v  -9.727653 1.021549 -4.007257
v  -5.531374 1.021550 -9.120770
v  0.000000 1.021549 -10.369918
v  3.832373 11.616927 5.781807
v  5.968037 11.616927 3.266136
v  4.211775 14.435722 2.424531
v  2.512225 14.435722 4.190262
v  4.410130 7.743933 6.554653
v  6.849250 7.743933 3.593102
v  1.515267 15.620932 1.572318
v  14.071645 5.280770 6.565154
v  15.092585 5.280770 -0.000000
v  7.604522 7.743933 -0.000000
v  8.251137 5.280770 13.138645
v  14.071645 3.744502 6.565154
v  15.092585 3.744502 -0.000000
v  8.251137 3.744502 13.138645
v  9.727652 1.021549 4.007256
v  10.001075 1.021550 -0.000000
v  5.531374 1.021550 9.120770
v  1.948360 15.620932 -0.000000
v  6.667412 11.616927 -0.000000
v  4.874413 14.435722 -0.000000
v  3.832373 11.616927 -5.781807
v  2.512225 14.435722 -4.190262
v  4.211775 14.435722 -2.424531
v  5.968037 11.616927 -3.266136
v  4.410130 7.743933 -6.554653
v  6.849250 7.743933 -3.593102
v  1.515267 15.620932 -1.572318
v  14.071645 5.280770 -6.565154
v  8.251137 5.280770 -13.138645
v  14.071645 3.744502 -6.565154
v  8.251137 3.744502 -13.138645
v  9.727652 1.021549 -4.007257
v  5.531374 1.021550 -9.120770
# 82 vertices

vn -0.471327 0.403380 0.784306
vn -0.315205 0.754661 0.575442
vn -0.579453 0.754010 0.309359
vn -0.822834 0.399522 0.404137
vn 0.000000 0.386261 0.922390
vn 0.000000 0.740199 0.672388
vn -0.353648 0.736631 0.576461
vn -0.626099 0.720398 0.298374
vn 0.000000 0.712674 0.701496
vn -0.198481 0.961414 0.190492
vn 0.000000 0.981148 0.193257
vn -0.702041 0.712136 0.000000
vn -0.826748 0.562572 -0.000000
vn -0.759711 0.544708 0.355152
vn -0.433753 0.540733 0.720741
vn 0.000000 0.549273 0.835643
vn -0.874002 -0.485922 0.000000
vn -0.795041 -0.475021 0.377180
vn -0.459461 -0.469178 0.754167
vn 0.000000 -0.470477 0.882412
vn -0.297943 -0.954584 0.000000
vn -0.299095 -0.946265 0.122980
vn -0.175079 -0.942289 0.285375
vn -0.000000 -0.944756 0.327774
vn 0.000000 -1.000000 0.000000
vn -0.000000 1.000000 0.000000
vn -0.254093 0.967180 -0.000000
vn -0.919733 0.392545 -0.000000
vn -0.668464 0.743744 -0.000000
vn -0.471327 0.403380 -0.784306
vn -0.822834 0.399522 -0.404137
vn -0.579453 0.754010 -0.309359
vn -0.315205 0.754661 -0.575442
vn 0.000000 0.386261 -0.922390
vn -0.000000 0.740199 -0.672388
vn -0.353648 0.736631 -0.576461
vn -0.626099 0.720398 -0.298374
vn 0.000000 0.712674 -0.701496
vn -0.198481 0.961414 -0.190492
vn 0.000000 0.981148 -0.193257
vn -0.759711 0.544708 -0.355152
vn -0.433753 0.540733 -0.720741
vn 0.000000 0.549273 -0.835643
vn -0.795041 -0.475021 -0.377180
vn -0.459461 -0.469178 -0.754167
vn 0.000000 -0.470477 -0.882412
vn -0.299095 -0.946265 -0.122980
vn -0.175079 -0.942289 -0.285375
vn 0.000000 -0.944756 -0.327774
vn 0.471327 0.403380 0.784306
vn 0.822834 0.399522 0.404137
vn 0.579453 0.754010 0.309359
vn 0.315205 0.754661 0.575442
vn 0.353648 0.736631 0.576461
vn 0.626099 0.720398 0.298374
vn 0.198481 0.961414 0.190492
vn 0.759711 0.544708 0.355152
vn 0.826748 0.562572 -0.000000
vn 0.702041 0.712136 -0.000000
vn 0.433753 0.540733 0.720741
vn 0.795041 -0.475021 0.377180
vn 0.874002 -0.485922 0.000000
vn 0.459461 -0.469178 0.754167
vn 0.299095 -0.946265 0.122980
vn 0.297943 -0.954584 0.000000
vn 0.175079 -0.942289 0.285375
vn 0.254093 0.967180 -0.000000
vn 0.919733 0.392545 0.000000
vn 0.668464 0.743744 -0.000000
vn 0.471327 0.403380 -0.784306
vn 0.315205 0.754661 -0.575442
vn 0.579453 0.754010 -0.309359
vn 0.822834 0.399522 -0.404137
vn 0.353648 0.736631 -0.576461
vn 0.626099 0.720398 -0.298374
vn 0.198481 0.961414 -0.190492
vn 0.759711 0.544708 -0.355152
vn 0.433753 0.540733 -0.720741
vn 0.795041 -0.475021 -0.377180
vn 0.459461 -0.469178 -0.754167
vn 0.299095 -0.946265 -0.122980
vn 0.175079 -0.942289 -0.285375
# 82 vertex normals

vt 0.429441 0.837301 0.000000
vt 0.309919 0.896990 0.000000
vt 0.262474 0.814893 0.000000
vt 0.363262 0.729608 0.000000
vt 0.463824 0.986516 0.000000
vt 0.323276 0.997577 0.000000
vt 0.569973 0.771153 0.000000
vt 0.486934 0.634309 0.000000
vt 0.621634 0.947619 0.000000
vt 0.192845 0.911816 0.000000
vt 0.179664 0.970751 0.000000
vt 0.654602 0.409837 0.000000
vt 0.595403 0.287067 0.000000
vt 0.819766 0.116725 0.000000
vt 0.933340 0.328046 0.000000
vt 0.656090 0.553570 0.000000
vt 0.925803 0.641716 0.000000
vt 0.561470 0.691821 0.000000
vt 0.757493 0.899291 0.000000
vt 0.872358 0.091715 0.000000
vt 0.985638 0.317237 0.000000
vt 0.976905 0.656211 0.000000
vt 0.807412 0.928699 0.000000
vt 0.022523 0.628495 0.000000
vt 0.017672 0.417359 0.000000
vt 0.174289 0.405271 0.000000
vt 0.280283 0.584557 0.000000
vt 0.539963 0.355660 0.000000
vt 0.374201 0.241737 0.000000
vt 0.624933 0.032341 0.000000
vt 0.425464 0.025915 0.000000
vt 0.017073 0.023318 0.000000
vt 0.117456 0.951686 0.000000
vt 0.139247 0.875310 0.000000
vt 0.270199 0.638125 0.000000
vt 0.186917 0.752441 0.000000
vt 0.385910 0.524140 0.000000
# 37 texture coords

g UFO
usemtl UFO
s 1
f 1/1/1 2/2/2 3/3/3 4/4/4 
f 5/5/5 6/6/6 2/2/2 1/1/1 
f 7/7/7 1/1/1 4/4/4 8/8/8 
f 9/9/9 5/5/5 1/1/1 7/7/7 
f 10/10/10 3/3/3 2/2/2 
f 6/6/6 11/11/11 10/10/10 2/2/2 
f 8/12/8 12/13/12 13/14/13 14/15/14 
f 7/16/7 8/12/8 14/15/14 15/17/15 
f 9/18/9 7/16/7 15/17/15 16/19/16 
f 13/14/13 17/20/17 18/21/18 14/15/14 
f 15/17/15 14/15/14 18/21/18 19/22/19 
f 16/19/16 15/17/15 19/22/19 20/23/20 
f 17/24/17 21/25/21 22/26/22 18/27/18 
f 19/28/19 18/27/18 22/26/22 23/29/23 
f 20/30/20 19/28/19 23/29/23 24/31/24 
f 22/26/22 25/32/25 23/29/23 
f 23/29/23 25/32/25 24/31/24 
f 10/10/10 11/11/11 26/33/26 27/34/27 
f 28/35/28 4/4/4 3/3/3 29/36/29 
f 12/37/12 8/8/8 4/4/4 28/35/28 
f 29/36/29 3/3/3 10/10/10 27/34/27 
f 25/32/25 22/26/22 21/25/21 
f 30/1/30 31/4/31 32/3/32 33/2/33 
f 34/5/34 30/1/30 33/2/33 35/6/35 
f 36/7/36 37/8/37 31/4/31 30/1/30 
f 38/9/38 36/7/36 30/1/30 34/5/34 
f 39/10/39 33/2/33 32/3/32 
f 35/6/35 33/2/33 39/10/39 40/11/40 
f 37/12/37 41/15/41 13/14/13 12/13/12 
f 36/16/36 42/17/42 41/15/41 37/12/37 
f 38/18/38 43/19/43 42/17/42 36/16/36 
f 13/14/13 41/15/41 44/21/44 17/20/17 
f 42/17/42 45/22/45 44/21/44 41/15/41 
f 43/19/43 46/23/46 45/22/45 42/17/42 
f 17/24/17 44/27/44 47/26/47 21/25/21 
f 45/28/45 48/29/48 47/26/47 44/27/44 
f 46/30/46 49/31/49 48/29/48 45/28/45 
f 47/26/47 48/29/48 25/32/25 
f 48/29/48 49/31/49 25/32/25 
f 39/10/39 27/34/27 26/33/26 40/11/40 
f 28/35/28 29/36/29 32/3/32 31/4/31 
f 12/37/12 28/35/28 31/4/31 37/8/37 
f 29/36/29 27/34/27 39/10/39 32/3/32 
f 25/32/25 21/25/21 47/26/47 
f 50/1/50 51/4/51 52/3/52 53/2/53 
f 5/5/5 50/1/50 53/2/53 6/6/6 
f 54/7/54 55/8/55 51/4/51 50/1/50 
f 9/9/9 54/7/54 50/1/50 5/5/5 
f 56/10/56 53/2/53 52/3/52 
f 6/6/6 53/2/53 56/10/56 11/11/11 
f 55/12/55 57/15/57 58/14/58 59/13/59 
f 54/16/54 60/17/60 57/15/57 55/12/55 
f 9/18/9 16/19/16 60/17/60 54/16/54 
f 58/14/58 57/15/57 61/21/61 62/20/62 
f 60/17/60 63/22/63 61/21/61 57/15/57 
f 16/19/16 20/23/20 63/22/63 60/17/60 
f 62/24/62 61/27/61 64/26/64 65/25/65 
f 63/28/63 66/29/66 64/26/64 61/27/61 
f 20/30/20 24/31/24 66/29/66 63/28/63 
f 64/26/64 66/29/66 25/32/25 
f 66/29/66 24/31/24 25/32/25 
f 56/10/56 67/34/67 26/33/26 11/11/11 
f 68/35/68 69/36/69 52/3/52 51/4/51 
f 59/37/59 68/35/68 51/4/51 55/8/55 
f 69/36/69 67/34/67 56/10/56 52/3/52 
f 25/32/25 65/25/65 64/26/64 
f 70/1/70 71/2/71 72/3/72 73/4/73 
f 34/5/34 35/6/35 71/2/71 70/1/70 
f 74/7/74 70/1/70 73/4/73 75/8/75 
f 38/9/38 34/5/34 70/1/70 74/7/74 
f 76/10/76 72/3/72 71/2/71 
f 35/6/35 40/11/40 76/10/76 71/2/71 
f 75/12/75 59/13/59 58/14/58 77/15/77 
f 74/16/74 75/12/75 77/15/77 78/17/78 
f 38/18/38 74/16/74 78/17/78 43/19/43 
f 58/14/58 62/20/62 79/21/79 77/15/77 
f 78/17/78 77/15/77 79/21/79 80/22/80 
f 43/19/43 78/17/78 80/22/80 46/23/46 
f 62/24/62 65/25/65 81/26/81 79/27/79 
f 80/28/80 79/27/79 81/26/81 82/29/82 
f 46/30/46 80/28/80 82/29/82 49/31/49 
f 81/26/81 25/32/25 82/29/82 
f 82/29/82 25/32/25 49/31/49 
f 76/10/76 40/11/40 26/33/26 67/34/67 
f 68/35/68 73/4/73 72/3/72 69/36/69 
f 59/37/59 75/8/75 73/4/73 68/35/68 
f 69/36/69 72/3/72 76/10/76 67/34/67 
f 25/32/25 81/26/81 65/25/65 
# 72 polygons - 16 triangles

